<svg width="24" height="24" viewBox="0 0 24 24" fill="none" xmlns="http://www.w3.org/2000/svg">
  <path d="M5 6H3.5V4H6L8.2 15.2C8.35 15.95 9 16.5 9.75 16.5H18.2C18.95 16.5 19.6 16 19.8 15.28L21 10H7" stroke="#0755B8" stroke-width="1.9" stroke-linecap="round" stroke-linejoin="round"/>
  <path d="M10 20.25C10.69 20.25 11.25 19.69 11.25 19C11.25 18.31 10.69 17.75 10 17.75C9.31 17.75 8.75 18.31 8.75 19C8.75 19.69 9.31 20.25 10 20.25Z" fill="#0755B8"/>
  <path d="M18 20.25C18.69 20.25 19.25 19.69 19.25 19C19.25 18.31 18.69 17.75 18 17.75C17.31 17.75 16.75 18.31 16.75 19C16.75 19.69 17.31 20.25 18 20.25Z" fill="#0755B8"/>
</svg>
