<svg width="24" height="24" viewBox="0 0 24 24" fill="none" xmlns="http://www.w3.org/2000/svg">
  <path d="M12 21C13.2 21 14.2 20.2 14.5 19H9.5C9.8 20.2 10.8 21 12 21Z" fill="#FFFFFF"/>
  <path d="M6.8 10.3C6.8 7.25 8.9 4.9 12 4.9C15.1 4.9 17.2 7.25 17.2 10.3V12.95C17.2 13.55 17.45 14.15 17.9 14.55L19 15.55V17.5H5V15.55L6.1 14.55C6.55 14.15 6.8 13.55 6.8 12.95V10.3Z" stroke="#FFFFFF" stroke-width="1.9" stroke-linejoin="round"/>
  <path d="M10 4.1C10.35 3.45 11.05 3 12 3C12.95 3 13.65 3.45 14 4.1" stroke="#FFFFFF" stroke-width="1.9" stroke-linecap="round"/>
</svg>
