<svg width="24" height="24" viewBox="0 0 24 24" fill="none" xmlns="http://www.w3.org/2000/svg">
  <path d="M12 14.8C13.55 14.8 14.8 13.55 14.8 12C14.8 10.45 13.55 9.2 12 9.2C10.45 9.2 9.2 10.45 9.2 12C9.2 13.55 10.45 14.8 12 14.8Z" stroke="#0755B8" stroke-width="1.9"/>
  <path d="M18.2 13.5C18.28 13.02 18.28 12.98 18.28 12.5C18.28 12.02 18.28 11.98 18.2 11.5L20.2 9.95L18.2 6.55L15.85 7.5C15.1 6.9 14.9 6.78 14 6.45L13.65 4H10.35L10 6.45C9.1 6.78 8.9 6.9 8.15 7.5L5.8 6.55L3.8 9.95L5.8 11.5C5.72 11.98 5.72 12.02 5.72 12.5C5.72 12.98 5.72 13.02 5.8 13.5L3.8 15.05L5.8 18.45L8.15 17.5C8.9 18.1 9.1 18.22 10 18.55L10.35 21H13.65L14 18.55C14.9 18.22 15.1 18.1 15.85 17.5L18.2 18.45L20.2 15.05L18.2 13.5Z" stroke="#0755B8" stroke-width="1.45" stroke-linejoin="round"/>
</svg>
