<?xml version="1.0" encoding="UTF-8"?>
<!DOCTYPE svg PUBLIC "-//W3C//DTD SVG 1.1//EN" "http://www.w3.org/Graphics/SVG/1.1/DTD/svg11.dtd">
<!-- Creator: CorelDRAW X7 -->
<svg xmlns="http://www.w3.org/2000/svg" xml:space="preserve" width="132.292mm" height="132.292mm" version="1.1" style="shape-rendering:geometricPrecision; text-rendering:geometricPrecision; image-rendering:optimizeQuality; fill-rule:evenodd; clip-rule:evenodd"
viewBox="0 0 13229 13229"
 xmlns:xlink="http://www.w3.org/1999/xlink">
 <defs>
  <style type="text/css">
   <![CDATA[
    .fil0 {fill:none}
    .fil1 {fill:#0A1072}
    .fil2 {fill:#FDFDFD}
   ]]>
  </style>
 </defs>
 <g id="Layer_x0020_1">
  <metadata id="CorelCorpID_0Corel-Layer"/>
  <rect class="fil0" width="13229" height="13229"/>
  <g id="_1793241318928">
   <path class="fil1" d="M6389 1034c-728,29 -1571,225 -2218,565 -319,168 -605,337 -853,532l-468 396c-209,189 -486,501 -654,729 -29,38 -45,63 -74,103 -54,73 -94,136 -143,211 -886,1346 -1105,2892 -721,4488 46,189 108,359 167,530 60,173 138,322 213,484 160,344 504,870 752,1153l161 182c31,34 50,66 83,94 105,91 205,213 262,259l93 84c202,162 362,305 591,450 1042,661 1922,929 3264,904 1123,-21 2249,-460 3075,-1094 137,-105 257,-207 382,-315 344,-294 705,-753 955,-1125 1069,-1586 1181,-3787 339,-5512 -315,-646 -758,-1216 -1178,-1600 -273,-249 -427,-393 -767,-616 -943,-619 -2057,-950 -3261,-902z"/>
   <path class="fil2" d="M8786 10531c-34,-26 -79,-8 -126,-2 -785,111 -1270,110 -2085,-67 -598,-130 -1267,-452 -1681,-753 -61,-45 -111,-83 -174,-128 -138,-98 -376,-313 -487,-429 -677,-705 -1049,-1654 -997,-2653 18,-355 89,-701 199,-1014 55,-158 117,-284 181,-422 64,-138 152,-266 227,-388 94,-152 280,-379 397,-508l480 -437c1046,-829 2453,-1169 3788,-975 89,13 169,26 258,44 71,15 194,47 261,48 -71,-79 -336,-223 -464,-283 -535,-251 -1190,-426 -1804,-450 -934,-37 -1743,191 -2427,584 -261,150 -346,217 -558,378 -37,28 -68,51 -105,82 -119,97 -285,251 -388,362 -216,233 -318,343 -505,628 -399,607 -717,1371 -750,2268 -33,902 201,1750 585,2424 117,205 464,710 645,863l184 190c135,132 492,397 640,494 1251,826 2779,946 4194,394 85,-33 307,-128 387,-175 42,-25 79,-59 125,-75z"/>
   <path class="fil2" d="M4279 6814c35,107 58,181 114,275 140,235 377,436 642,564 540,261 802,154 1404,172l-176 1118 535 1 231 -1302c15,-43 79,-84 122,-97l175 1397 423 3 804 -1798c6,29 -202,1138 -234,1336 -23,144 -66,321 -75,462l686 -1 406 -2402 -985 -1c-32,88 -94,207 -136,299l-410 903c-12,-14 -10,-7 -18,-32l-77 -630c-24,-222 -38,-471 -73,-686 -106,-647 -757,-820 -1272,-998 -178,-62 -439,-116 -445,-313 -6,-219 291,-268 501,-223 93,21 201,66 261,115 137,115 113,153 162,222l952 -235c-59,-267 -244,-471 -449,-611 -390,-266 -975,-359 -1470,-288 -210,30 -373,84 -540,169 -83,42 -199,116 -261,176l-134 147c-217,266 -307,755 -125,1120 86,172 192,266 335,372 365,272 1051,355 1248,542 67,64 87,182 21,268 -151,196 -581,174 -835,47 -94,-47 -124,-94 -178,-186 -78,-132 -61,-113 -226,-82 -105,19 -204,38 -307,57l-596 120z"/>
   <path class="fil2" d="M4337 4876l377 -402c235,-238 751,-530 1087,-652 660,-242 1469,-286 2174,-75 674,201 1219,569 1559,968 188,222 354,448 488,771 124,299 227,661 240,1024 51,1482 -982,2577 -2088,2954 -1137,388 -2397,215 -3317,-540 -36,-30 -58,-49 -92,-75 -84,-62 -233,-225 -333,-303 39,116 335,511 429,602 19,19 32,25 50,44 34,35 56,60 92,95l93 95c290,253 538,426 903,605 749,365 1721,400 2543,126 752,-251 1343,-792 1704,-1304 414,-589 703,-1420 685,-2330 -17,-892 -387,-1679 -801,-2204 -403,-512 -956,-972 -1809,-1209 -1058,-295 -2275,-3 -3057,657l-301 271c-177,171 -556,689 -626,882z"/>
  </g>
 </g>
</svg>
